# xmcd
#
# Track frame offsets: 
#        182
#        13170
#        23412
#        37967
#        51722
#        73970
#        86417
#        102110
#        119880
#        131235
#        143115
#        156630
#        170895
#        183835
#        195467
#        207967
#        220015
#        232462
#        243562
#        255187
#
# Disc length: 3561 seconds
#
# Revision: 6
# Processed by: cddbd v1.5.2PL0 Copyright (c) Steve Scherf et al.
# Submitted via: ExactAudioCopyFreeDBPlugin 1.0
#
DISCID=310de714
DTITLE=Various Artist - The Blues Box [CD 1)
DYEAR=1992
DGENRE=Blues
TTITLE0=Muddy Waters - Mannish Boy
TTITLE1=John Mayall - Roadshow
TTITLE2=John Lee Hooker - Sugar Mama
TTITLE3=Eric Clapton - Draggin' My Tail
TTITLE4=Howlin' Wolf - Wang Dang Doodle
TTITLE5=Elmore James - Standing At The Crossroads
TTITLE6=Lightning Hopkins - Lightning Hopkins - Coffee For Mama
TTITLE7=John Mayall - Mama Talk To Your Daughter
TTITLE8=Muddy Waters - Crawlin' Kingsnake
TTITLE9=BB King - Dark Is The Night (Part 1)
TTITLE10=John Mayall - A Big Man
TTITLE11=Howlin' Wolf - I Walked From Dallas
TTITLE12=Elmore James - Dust My Broom
TTITLE13=Little Walter - My Babe
TTITLE14=John Lee Hooker - Trouble Blues
TTITLE15=John Mayall - Lost And Gone
TTITLE16=Elmore James - I Need You
TTITLE17=John Lee Hooker - Bottle Up and Go
TTITLE18=Eric Clapton& The Yardbirds - Got To Hurry
TTITLE19=John Lee Hooker - Frisco
EXTD=Year: 1992   [CD 1 from 2)
EXTT0=
EXTT1=
EXTT2=
EXTT3=
EXTT4=
EXTT5=
EXTT6=
EXTT7=
EXTT8=
EXTT9=
EXTT10=
EXTT11=
EXTT12=
EXTT13=
EXTT14=
EXTT15=
EXTT16=
EXTT17=
EXTT18=
EXTT19=
PLAYORDER=
